<?xml version="1.0" encoding="UTF-8"?>
<!DOCTYPE svg PUBLIC "-//W3C//DTD SVG 1.1//EN" "http://www.w3.org/Graphics/SVG/1.1/DTD/svg11.dtd">
<!-- Creator: CorelDRAW 2021.5 -->
<svg xmlns="http://www.w3.org/2000/svg" xml:space="preserve" width="336px" height="48px" version="1.1" shape-rendering="geometricPrecision" text-rendering="geometricPrecision" image-rendering="optimizeQuality" fill-rule="evenodd" clip-rule="evenodd"
viewBox="0 0 337.47 48.22"
 xmlns:xlink="http://www.w3.org/1999/xlink"
 xmlns:xodm="http://www.corel.com/coreldraw/odm/2003">
 <g id="Layer_x0020_1">
  <metadata id="CorelCorpID_0Corel-Layer"/>
  <g id="_2574850700528">
   <path fill="#A9E0F9" d="M40.86 48.22c-9.01,0 -10.3,-1.34 -14.2,-3.6 -2.73,1.8 -6.04,2.86 -9.6,2.86 -9.42,0 -17.06,-7.4 -17.06,-16.52 0,-7.12 4.65,-13.18 11.17,-15.51 0.66,-8.63 8.47,-15.45 18.01,-15.45 9.49,0 17.26,6.75 18,15.32 8.72,3 12.76,8.16 12.76,16.75 0,8.59 -10.06,16.15 -19.08,16.15z"/>
   <path fill="#037EB5" d="M15.12 17.8l5.08 0c0.44,0 0.8,0.36 0.8,0.8l0 5.08c0,0.44 -0.36,0.8 -0.8,0.8l-5.08 0c-0.44,0 -0.8,-0.36 -0.8,-0.8l0 -5.08c0,-0.44 0.36,-0.8 0.8,-0.8zm8.05 -0.01l5.09 0c0.44,0 0.8,0.36 0.8,0.8l0 5.09c0,0.45 -0.36,0.81 -0.8,0.81l-5.09 0c-0.45,0 -0.81,-0.36 -0.81,-0.81l0 -5.09c0,-0.44 0.36,-0.8 0.81,-0.8zm0 8.03l5.09 0c0.44,0 0.8,0.36 0.8,0.8l0 5.09c0,0.44 -0.36,0.8 -0.8,0.8l-5.09 0c-0.45,0 -0.81,-0.36 -0.81,-0.8l0 -5.09c0,-0.44 0.36,-0.8 0.81,-0.8zm0 -16.06l5.08 0c0.45,0 0.81,0.37 0.81,0.81l0 5.08c0,0.45 -0.36,0.81 -0.81,0.81l-5.08 0c-0.44,0 -0.81,-0.36 -0.81,-0.81l0 -5.08c0,-0.44 0.37,-0.81 0.81,-0.81zm-8.05 16.06l5.08 0c0.45,0 0.81,0.36 0.81,0.8l0 5.09c0,0.44 -0.36,0.8 -0.81,0.8l-5.08 0c-0.44,0 -0.8,-0.36 -0.8,-0.8l0 -5.09c0,-0.44 0.36,-0.8 0.8,-0.8zm8.05 8.03l5.08 0c0.45,0 0.81,0.36 0.81,0.8l0 5.09c0,0.44 -0.36,0.8 -0.81,0.8l-5.08 0c-0.44,0 -0.81,-0.36 -0.81,-0.8l0 -5.09c0,-0.44 0.37,-0.8 0.81,-0.8zm8.78 -24.09c7.77,0.81 13.83,7.38 13.83,15.37 0,7.99 -6.06,14.56 -13.83,15.37 -0.43,0.05 -0.82,-0.08 -1.14,-0.37 -0.32,-0.29 -0.48,-0.66 -0.48,-1.09l0 -27.82c0,-0.43 0.16,-0.8 0.48,-1.09 0.32,-0.29 0.71,-0.42 1.14,-0.37z"/>
  </g>
  <path fill="#373435" fill-rule="nonzero" d="M92.71 17.69c0,0.81 -0.1,1.66 -0.31,2.56 -0.2,0.88 -0.53,1.75 -0.98,2.6 -0.46,0.86 -1.06,1.66 -1.79,2.43 -0.72,0.76 -1.61,1.44 -2.67,2.03 -1.06,0.59 -2.28,1.06 -3.66,1.4 -1.39,0.34 -3.02,0.51 -4.91,0.51l-3.31 0 -2.02 9.03c-0.03,0.14 -0.11,0.27 -0.24,0.39 -0.14,0.12 -0.34,0.21 -0.61,0.29 -0.29,0.06 -0.64,0.12 -1.07,0.16 -0.41,0.04 -0.94,0.05 -1.56,0.05 -0.61,0 -1.1,-0.01 -1.51,-0.05 -0.4,-0.04 -0.71,-0.1 -0.94,-0.16 -0.23,-0.08 -0.38,-0.17 -0.46,-0.28 -0.08,-0.11 -0.1,-0.24 -0.05,-0.4l5.72 -25.43c0.14,-0.68 0.46,-1.2 0.95,-1.54 0.49,-0.34 1.09,-0.51 1.8,-0.51l6.93 0c0.86,0 1.62,0.02 2.29,0.07 0.67,0.05 1.33,0.13 1.98,0.25 0.99,0.17 1.89,0.45 2.68,0.82 0.8,0.35 1.47,0.81 2.03,1.36 0.55,0.54 0.98,1.18 1.27,1.92 0.29,0.74 0.44,1.56 0.44,2.5zm-6.77 0.65c0,-0.7 -0.19,-1.3 -0.56,-1.82 -0.38,-0.5 -0.96,-0.86 -1.74,-1.07 -0.34,-0.1 -0.73,-0.17 -1.16,-0.21 -0.42,-0.04 -0.89,-0.05 -1.42,-0.05l-2.83 0 -2.16 9.61 2.95 0c0.94,0 1.74,-0.1 2.4,-0.3 0.67,-0.19 1.25,-0.45 1.75,-0.77 0.5,-0.32 0.93,-0.7 1.28,-1.14 0.35,-0.44 0.64,-0.9 0.86,-1.38 0.22,-0.49 0.39,-0.97 0.48,-1.45 0.1,-0.5 0.15,-0.97 0.15,-1.42z"/>
  <path id="_1" fill="#373435" fill-rule="nonzero" d="M105.47 12.22c-0.12,0.53 -0.28,0.99 -0.47,1.36 -0.2,0.37 -0.46,0.67 -0.8,0.89 -0.32,0.24 -0.72,0.39 -1.21,0.49 -0.48,0.1 -1.07,0.14 -1.77,0.14 -0.69,0 -1.24,-0.04 -1.67,-0.14 -0.43,-0.1 -0.76,-0.25 -0.97,-0.49 -0.23,-0.22 -0.36,-0.52 -0.39,-0.89 -0.02,-0.37 0.02,-0.83 0.15,-1.36 0.12,-0.52 0.27,-0.97 0.46,-1.34 0.2,-0.36 0.46,-0.66 0.79,-0.89 0.32,-0.23 0.72,-0.4 1.19,-0.5 0.47,-0.1 1.06,-0.15 1.76,-0.15 0.69,0 1.26,0.05 1.7,0.15 0.44,0.1 0.77,0.27 0.99,0.5 0.22,0.23 0.34,0.53 0.37,0.89 0.03,0.37 -0.02,0.82 -0.13,1.34zm-6.35 26.05c-0.03,0.14 -0.11,0.27 -0.24,0.38 -0.11,0.11 -0.3,0.2 -0.56,0.28 -0.26,0.06 -0.59,0.12 -1,0.16 -0.41,0.04 -0.91,0.05 -1.5,0.05 -0.61,0 -1.09,-0.01 -1.48,-0.05 -0.37,-0.04 -0.67,-0.1 -0.89,-0.16 -0.22,-0.08 -0.36,-0.17 -0.43,-0.28 -0.07,-0.11 -0.08,-0.24 -0.05,-0.38l4.32 -19.44c0.03,-0.14 0.11,-0.27 0.23,-0.38 0.12,-0.11 0.31,-0.21 0.56,-0.28 0.26,-0.08 0.59,-0.14 0.98,-0.19 0.4,-0.04 0.9,-0.06 1.51,-0.06 0.61,0 1.1,0.02 1.48,0.06 0.39,0.05 0.69,0.11 0.92,0.19 0.21,0.07 0.36,0.17 0.42,0.28 0.07,0.11 0.09,0.24 0.05,0.38l-4.32 19.44z"/>
  <path id="_2" fill="#373435" fill-rule="nonzero" d="M120.49 28.18l3.93 9.7c0.08,0.24 0.1,0.45 0.05,0.61 -0.05,0.16 -0.2,0.29 -0.46,0.39 -0.25,0.11 -0.62,0.17 -1.1,0.21 -0.48,0.04 -1.09,0.05 -1.85,0.05 -0.68,0 -1.21,-0.01 -1.59,-0.04 -0.39,-0.03 -0.69,-0.08 -0.9,-0.13 -0.21,-0.06 -0.35,-0.14 -0.42,-0.24 -0.07,-0.1 -0.12,-0.22 -0.16,-0.35l-2.67 -6.88 -5.56 6.9c-0.1,0.13 -0.2,0.24 -0.33,0.34 -0.12,0.09 -0.33,0.17 -0.61,0.23 -0.28,0.05 -0.66,0.1 -1.13,0.13 -0.47,0.03 -1.09,0.04 -1.87,0.04 -0.71,0 -1.27,-0.01 -1.7,-0.05 -0.42,-0.04 -0.73,-0.1 -0.93,-0.2 -0.19,-0.09 -0.27,-0.22 -0.26,-0.37 0.03,-0.15 0.14,-0.35 0.31,-0.6l8.32 -9.7 -3.65 -8.99c-0.1,-0.26 -0.14,-0.48 -0.1,-0.65 0.03,-0.17 0.16,-0.3 0.38,-0.4 0.22,-0.11 0.56,-0.17 1.02,-0.21 0.47,-0.04 1.08,-0.05 1.85,-0.05 0.67,0 1.2,0 1.58,0.03 0.39,0.02 0.69,0.06 0.89,0.1 0.21,0.04 0.34,0.11 0.42,0.2 0.07,0.1 0.13,0.22 0.18,0.37l2.56 6.51 5.27 -6.51c0.1,-0.12 0.2,-0.22 0.32,-0.31 0.11,-0.09 0.29,-0.16 0.53,-0.22 0.24,-0.06 0.56,-0.1 0.95,-0.13 0.39,-0.03 0.92,-0.04 1.59,-0.04 0.75,0 1.35,0.01 1.81,0.04 0.45,0.03 0.78,0.09 1,0.17 0.2,0.09 0.3,0.21 0.27,0.37 -0.02,0.15 -0.14,0.35 -0.35,0.61l-7.59 9.07z"/>
  <path id="_3" fill="#373435" fill-rule="nonzero" d="M153.19 11.6c0,0.09 0,0.24 -0.03,0.46 -0.02,0.22 -0.07,0.46 -0.12,0.73 -0.04,0.27 -0.1,0.55 -0.19,0.84 -0.08,0.3 -0.18,0.56 -0.31,0.81 -0.12,0.24 -0.27,0.44 -0.43,0.6 -0.18,0.16 -0.36,0.24 -0.55,0.24l-11.33 0 -1.55 6.88 9.61 0c0.23,0 0.4,0.08 0.49,0.22 0.1,0.15 0.15,0.35 0.15,0.61 0,0.1 -0.01,0.26 -0.03,0.47 -0.03,0.21 -0.07,0.45 -0.12,0.72 -0.04,0.27 -0.11,0.54 -0.19,0.81 -0.09,0.28 -0.19,0.53 -0.31,0.77 -0.12,0.23 -0.27,0.42 -0.43,0.56 -0.17,0.15 -0.34,0.22 -0.54,0.22l-9.6 0 -1.79 7.96 11.47 0c0.19,0 0.34,0.07 0.44,0.23 0.1,0.15 0.15,0.37 0.15,0.67 0,0.09 -0.01,0.26 -0.03,0.47 -0.02,0.23 -0.05,0.47 -0.11,0.74 -0.06,0.27 -0.12,0.54 -0.21,0.82 -0.08,0.28 -0.18,0.54 -0.3,0.78 -0.12,0.24 -0.27,0.43 -0.42,0.58 -0.17,0.14 -0.36,0.22 -0.56,0.22l-15.94 0c-0.26,0 -0.51,-0.03 -0.72,-0.1 -0.21,-0.07 -0.39,-0.18 -0.52,-0.33 -0.15,-0.15 -0.24,-0.34 -0.29,-0.56 -0.05,-0.23 -0.04,-0.5 0.03,-0.82l5.52 -24.62c0.15,-0.65 0.44,-1.11 0.89,-1.39 0.45,-0.28 0.95,-0.42 1.49,-0.42l15.75 0c0.43,0 0.63,0.27 0.63,0.83z"/>
  <path id="_4" fill="#373435" fill-rule="nonzero" d="M172.26 38.28c-0.06,0.31 -0.32,0.53 -0.78,0.66 -0.46,0.14 -1.18,0.2 -2.19,0.2 -0.5,0 -0.91,-0.01 -1.23,-0.04 -0.32,-0.03 -0.57,-0.08 -0.77,-0.14 -0.2,-0.07 -0.32,-0.16 -0.38,-0.27 -0.06,-0.11 -0.07,-0.25 -0.03,-0.41l0.62 -3.12c-0.24,0.47 -0.63,0.96 -1.17,1.47 -0.53,0.52 -1.17,0.99 -1.9,1.42 -0.73,0.43 -1.54,0.78 -2.43,1.05 -0.89,0.27 -1.81,0.4 -2.75,0.4 -0.93,0 -1.75,-0.1 -2.44,-0.31 -0.7,-0.22 -1.29,-0.5 -1.79,-0.87 -0.5,-0.36 -0.91,-0.79 -1.24,-1.29 -0.33,-0.49 -0.59,-1.02 -0.79,-1.57 -0.2,-0.55 -0.34,-1.12 -0.41,-1.71 -0.09,-0.59 -0.13,-1.16 -0.13,-1.73 0,-0.94 0.1,-1.96 0.29,-3.04 0.2,-1.08 0.5,-2.16 0.92,-3.23 0.42,-1.07 0.95,-2.1 1.58,-3.09 0.65,-0.99 1.41,-1.86 2.3,-2.61 0.89,-0.76 1.91,-1.37 3.06,-1.81 1.16,-0.46 2.45,-0.68 3.89,-0.68 0.64,0 1.25,0.06 1.83,0.18 0.58,0.12 1.11,0.29 1.59,0.5 0.48,0.22 0.92,0.47 1.32,0.76 0.38,0.29 0.72,0.59 1,0.91l2.29 -10.26c0.04,-0.15 0.11,-0.28 0.23,-0.4 0.11,-0.11 0.3,-0.21 0.55,-0.29 0.26,-0.08 0.58,-0.14 0.99,-0.18 0.41,-0.05 0.91,-0.07 1.52,-0.07 0.6,0 1.09,0.02 1.47,0.07 0.38,0.04 0.67,0.1 0.88,0.18 0.21,0.08 0.35,0.18 0.41,0.29 0.06,0.12 0.08,0.25 0.05,0.4l-6.36 28.63zm-3.09 -13.63c-0.57,-0.8 -1.21,-1.39 -1.9,-1.8 -0.69,-0.4 -1.5,-0.6 -2.41,-0.6 -0.68,0 -1.3,0.14 -1.86,0.43 -0.57,0.28 -1.07,0.66 -1.53,1.13 -0.45,0.47 -0.85,1.02 -1.18,1.65 -0.34,0.63 -0.61,1.3 -0.84,1.99 -0.22,0.7 -0.39,1.39 -0.5,2.09 -0.12,0.69 -0.18,1.36 -0.18,1.98 0,1.11 0.21,1.93 0.62,2.49 0.42,0.56 1.07,0.84 1.97,0.84 0.72,0 1.46,-0.19 2.21,-0.58 0.76,-0.38 1.46,-0.9 2.11,-1.54 0.66,-0.65 1.24,-1.42 1.73,-2.29 0.5,-0.88 0.87,-1.82 1.1,-2.83l0.66 -2.96z"/>
  <path id="_5" fill="#373435" fill-rule="nonzero" d="M190.93 12.22c-0.12,0.53 -0.28,0.99 -0.47,1.36 -0.2,0.37 -0.46,0.67 -0.79,0.89 -0.33,0.24 -0.73,0.39 -1.22,0.49 -0.47,0.1 -1.07,0.14 -1.77,0.14 -0.69,0 -1.24,-0.04 -1.67,-0.14 -0.43,-0.1 -0.76,-0.25 -0.97,-0.49 -0.23,-0.22 -0.35,-0.52 -0.39,-0.89 -0.02,-0.37 0.02,-0.83 0.15,-1.36 0.12,-0.52 0.27,-0.97 0.46,-1.34 0.2,-0.36 0.46,-0.66 0.79,-0.89 0.33,-0.23 0.72,-0.4 1.2,-0.5 0.46,-0.1 1.05,-0.15 1.75,-0.15 0.7,0 1.26,0.05 1.7,0.15 0.44,0.1 0.77,0.27 0.99,0.5 0.22,0.23 0.35,0.53 0.37,0.89 0.03,0.37 -0.01,0.82 -0.13,1.34zm-6.35 26.05c-0.03,0.14 -0.11,0.27 -0.23,0.38 -0.12,0.11 -0.31,0.2 -0.57,0.28 -0.25,0.06 -0.59,0.12 -1,0.16 -0.41,0.04 -0.91,0.05 -1.5,0.05 -0.6,0 -1.09,-0.01 -1.47,-0.05 -0.38,-0.04 -0.68,-0.1 -0.9,-0.16 -0.22,-0.08 -0.36,-0.17 -0.43,-0.28 -0.06,-0.11 -0.08,-0.24 -0.05,-0.38l4.32 -19.44c0.03,-0.14 0.11,-0.27 0.23,-0.38 0.12,-0.11 0.31,-0.21 0.56,-0.28 0.26,-0.08 0.59,-0.14 0.98,-0.19 0.4,-0.04 0.91,-0.06 1.52,-0.06 0.6,0 1.09,0.02 1.48,0.06 0.38,0.05 0.68,0.11 0.91,0.19 0.22,0.07 0.36,0.17 0.42,0.28 0.07,0.11 0.09,0.24 0.05,0.38l-4.32 19.44z"/>
  <path id="_6" fill="#373435" fill-rule="nonzero" d="M207.92 18.99c0,0.15 -0.01,0.33 -0.05,0.56 -0.03,0.23 -0.07,0.47 -0.13,0.73 -0.06,0.26 -0.14,0.53 -0.24,0.79 -0.09,0.26 -0.2,0.5 -0.32,0.71 -0.13,0.22 -0.26,0.39 -0.42,0.53 -0.15,0.14 -0.32,0.21 -0.5,0.21l-4.77 0 -2.07 9.14c-0.04,0.21 -0.09,0.47 -0.14,0.77 -0.04,0.3 -0.06,0.55 -0.06,0.74 0,0.58 0.16,1 0.46,1.28 0.31,0.27 0.81,0.4 1.47,0.4 0.39,0 0.73,-0.02 1.01,-0.07 0.28,-0.05 0.53,-0.11 0.73,-0.18 0.21,-0.06 0.38,-0.12 0.53,-0.17 0.15,-0.05 0.29,-0.08 0.42,-0.08 0.14,0 0.24,0.06 0.34,0.17 0.09,0.1 0.13,0.28 0.13,0.53 0,0.27 -0.03,0.58 -0.1,0.93 -0.07,0.35 -0.15,0.7 -0.26,1.02 -0.1,0.33 -0.23,0.62 -0.35,0.9 -0.13,0.27 -0.28,0.47 -0.42,0.59 -0.15,0.14 -0.38,0.26 -0.67,0.38 -0.29,0.12 -0.64,0.21 -1.04,0.3 -0.41,0.09 -0.83,0.16 -1.29,0.21 -0.46,0.05 -0.92,0.08 -1.38,0.08 -0.98,0 -1.84,-0.09 -2.59,-0.28 -0.73,-0.18 -1.36,-0.47 -1.86,-0.86 -0.51,-0.39 -0.89,-0.9 -1.14,-1.51 -0.25,-0.61 -0.38,-1.35 -0.38,-2.23 0,-0.16 0.01,-0.34 0.02,-0.55 0.02,-0.21 0.05,-0.44 0.09,-0.67 0.05,-0.23 0.08,-0.47 0.12,-0.71 0.04,-0.24 0.09,-0.46 0.14,-0.64l2.14 -9.49 -2.65 0c-0.22,0 -0.38,-0.06 -0.47,-0.19 -0.1,-0.12 -0.15,-0.36 -0.15,-0.71 0,-0.25 0.02,-0.58 0.08,-0.97 0.06,-0.4 0.15,-0.8 0.28,-1.19 0.14,-0.38 0.31,-0.72 0.52,-0.99 0.22,-0.28 0.47,-0.42 0.76,-0.42l2.64 0 0.98 -4.36c0.04,-0.14 0.11,-0.27 0.24,-0.39 0.12,-0.11 0.3,-0.21 0.56,-0.29 0.25,-0.08 0.57,-0.14 0.97,-0.18 0.39,-0.04 0.89,-0.05 1.5,-0.05 0.59,0 1.08,0.01 1.48,0.05 0.4,0.04 0.7,0.1 0.92,0.18 0.21,0.08 0.36,0.18 0.43,0.29 0.07,0.12 0.09,0.25 0.06,0.39l-0.99 4.36 4.71 0c0.28,0 0.47,0.08 0.56,0.24 0.1,0.16 0.15,0.39 0.15,0.7z"/>
  <path id="_7" fill="#373435" fill-rule="nonzero" d="M246.54 13.51c0,0.41 -0.07,0.96 -0.23,1.64 -0.15,0.69 -0.35,1.24 -0.59,1.65 -0.23,0.42 -0.5,0.62 -0.79,0.62 -0.22,0 -0.47,-0.12 -0.76,-0.36 -0.29,-0.24 -0.68,-0.5 -1.16,-0.78 -0.46,-0.27 -1.07,-0.53 -1.8,-0.77 -0.74,-0.25 -1.66,-0.36 -2.75,-0.36 -1.21,0 -2.31,0.21 -3.31,0.64 -0.99,0.43 -1.89,0.99 -2.67,1.7 -0.78,0.7 -1.47,1.51 -2.05,2.43 -0.6,0.92 -1.08,1.86 -1.47,2.85 -0.38,0.99 -0.66,1.98 -0.85,2.96 -0.19,0.97 -0.28,1.89 -0.28,2.73 0,1.02 0.14,1.91 0.42,2.68 0.3,0.77 0.71,1.41 1.24,1.92 0.54,0.5 1.21,0.89 1.99,1.14 0.79,0.26 1.67,0.38 2.65,0.38 1.16,0 2.15,-0.11 2.98,-0.32 0.82,-0.22 1.52,-0.46 2.11,-0.73 0.57,-0.26 1.06,-0.5 1.44,-0.72 0.38,-0.21 0.73,-0.33 1.04,-0.33 0.21,0 0.35,0.07 0.42,0.21 0.07,0.14 0.11,0.33 0.11,0.58 0,0.1 -0.02,0.26 -0.05,0.46 -0.04,0.21 -0.08,0.43 -0.12,0.69 -0.05,0.25 -0.11,0.53 -0.17,0.83 -0.07,0.3 -0.15,0.57 -0.22,0.83 -0.09,0.25 -0.18,0.49 -0.29,0.7 -0.11,0.21 -0.25,0.4 -0.42,0.55 -0.19,0.17 -0.54,0.38 -1.06,0.63 -0.52,0.25 -1.16,0.49 -1.9,0.71 -0.76,0.22 -1.61,0.41 -2.55,0.55 -0.95,0.16 -1.96,0.24 -3.04,0.24 -1.77,0 -3.38,-0.21 -4.81,-0.64 -1.43,-0.42 -2.64,-1.06 -3.64,-1.92 -0.99,-0.86 -1.76,-1.93 -2.3,-3.22 -0.54,-1.3 -0.81,-2.81 -0.81,-4.54 0,-1.36 0.16,-2.76 0.47,-4.22 0.31,-1.46 0.78,-2.89 1.41,-4.29 0.62,-1.39 1.42,-2.71 2.39,-3.97 0.96,-1.25 2.1,-2.34 3.41,-3.28 1.31,-0.93 2.81,-1.68 4.48,-2.23 1.67,-0.56 3.53,-0.83 5.57,-0.83 1.15,0 2.23,0.1 3.25,0.32 1.02,0.21 1.91,0.49 2.66,0.84 0.77,0.35 1.3,0.66 1.6,0.95 0.3,0.28 0.45,0.64 0.45,1.08z"/>
  <path id="_8" fill="#373435" fill-rule="nonzero" d="M251.66 38.27c-0.03,0.14 -0.11,0.27 -0.23,0.38 -0.12,0.11 -0.31,0.2 -0.55,0.28 -0.26,0.06 -0.58,0.12 -0.99,0.16 -0.41,0.04 -0.91,0.05 -1.51,0.05 -0.62,0 -1.11,-0.01 -1.49,-0.05 -0.38,-0.04 -0.68,-0.1 -0.89,-0.16 -0.21,-0.08 -0.35,-0.17 -0.43,-0.28 -0.06,-0.11 -0.09,-0.24 -0.06,-0.38l6.43 -28.71c0.03,-0.14 0.11,-0.28 0.21,-0.4 0.12,-0.11 0.31,-0.21 0.57,-0.29 0.26,-0.08 0.6,-0.14 0.99,-0.18 0.4,-0.05 0.9,-0.07 1.51,-0.07 0.61,0 1.1,0.02 1.48,0.07 0.39,0.04 0.69,0.1 0.9,0.18 0.21,0.08 0.35,0.18 0.42,0.29 0.06,0.12 0.08,0.26 0.05,0.4l-6.41 28.71z"/>
  <path id="_9" fill="#373435" fill-rule="nonzero" d="M281.93 25.34c0,1.05 -0.11,2.12 -0.34,3.23 -0.21,1.11 -0.56,2.19 -1.03,3.24 -0.48,1.05 -1.08,2.04 -1.83,2.97 -0.74,0.92 -1.64,1.73 -2.67,2.44 -1.04,0.71 -2.23,1.26 -3.57,1.67 -1.33,0.41 -2.84,0.61 -4.53,0.61 -1.65,0 -3.08,-0.17 -4.28,-0.51 -1.2,-0.35 -2.2,-0.85 -3,-1.51 -0.81,-0.66 -1.41,-1.47 -1.8,-2.44 -0.39,-0.97 -0.59,-2.08 -0.59,-3.32 0,-1.05 0.11,-2.13 0.34,-3.24 0.22,-1.1 0.57,-2.18 1.04,-3.22 0.47,-1.05 1.08,-2.04 1.83,-2.98 0.74,-0.94 1.63,-1.76 2.66,-2.45 1.05,-0.7 2.24,-1.25 3.58,-1.66 1.34,-0.41 2.85,-0.61 4.54,-0.61 1.64,0 3.07,0.17 4.27,0.51 1.2,0.34 2.2,0.84 3,1.51 0.81,0.66 1.4,1.47 1.79,2.44 0.4,0.97 0.59,2.08 0.59,3.32zm-6.38 0.39c0,-0.61 -0.06,-1.16 -0.2,-1.62 -0.14,-0.47 -0.37,-0.88 -0.69,-1.2 -0.32,-0.33 -0.73,-0.58 -1.22,-0.76 -0.5,-0.17 -1.11,-0.26 -1.83,-0.26 -0.82,0 -1.56,0.14 -2.21,0.43 -0.65,0.28 -1.24,0.66 -1.76,1.14 -0.51,0.48 -0.95,1.04 -1.33,1.67 -0.37,0.63 -0.69,1.3 -0.93,1.99 -0.25,0.7 -0.43,1.41 -0.54,2.13 -0.12,0.72 -0.17,1.4 -0.17,2.06 0,0.61 0.06,1.15 0.21,1.63 0.14,0.48 0.36,0.88 0.68,1.21 0.33,0.33 0.74,0.58 1.23,0.75 0.5,0.18 1.11,0.27 1.83,0.27 0.82,0 1.56,-0.15 2.21,-0.43 0.65,-0.28 1.24,-0.67 1.75,-1.15 0.52,-0.49 0.96,-1.05 1.34,-1.68 0.37,-0.63 0.68,-1.3 0.92,-2.01 0.25,-0.7 0.43,-1.41 0.55,-2.12 0.11,-0.72 0.16,-1.4 0.16,-2.05z"/>
  <path id="_10" fill="#373435" fill-rule="nonzero" d="M304.54 38.29c-0.03,0.15 -0.11,0.27 -0.21,0.38 -0.11,0.12 -0.27,0.2 -0.49,0.26 -0.22,0.07 -0.5,0.12 -0.85,0.16 -0.34,0.04 -0.77,0.05 -1.27,0.05 -0.51,0 -0.92,-0.01 -1.24,-0.05 -0.32,-0.04 -0.57,-0.09 -0.75,-0.16 -0.18,-0.06 -0.3,-0.14 -0.36,-0.26 -0.06,-0.11 -0.06,-0.23 -0.01,-0.38l0.67 -3.17c-0.33,0.51 -0.78,1.02 -1.35,1.54 -0.57,0.52 -1.23,0.99 -1.97,1.42 -0.74,0.42 -1.54,0.76 -2.41,1.03 -0.86,0.26 -1.75,0.39 -2.67,0.39 -1.15,0 -2.12,-0.14 -2.91,-0.42 -0.8,-0.29 -1.43,-0.67 -1.92,-1.16 -0.48,-0.49 -0.83,-1.07 -1.05,-1.76 -0.23,-0.68 -0.33,-1.42 -0.33,-2.22 0,-0.5 0.04,-1 0.1,-1.52 0.08,-0.51 0.17,-1.04 0.29,-1.57l2.71 -12.09c0.03,-0.14 0.11,-0.26 0.23,-0.37 0.13,-0.12 0.31,-0.2 0.56,-0.27 0.26,-0.06 0.59,-0.11 1,-0.15 0.41,-0.04 0.91,-0.05 1.49,-0.05 0.61,0 1.1,0.01 1.48,0.05 0.39,0.04 0.69,0.09 0.9,0.15 0.22,0.07 0.36,0.15 0.43,0.27 0.07,0.11 0.1,0.23 0.06,0.37l-2.61 11.71c-0.09,0.32 -0.15,0.66 -0.19,1 -0.04,0.35 -0.06,0.69 -0.06,1.01 0,0.35 0.04,0.66 0.11,0.94 0.08,0.29 0.19,0.53 0.36,0.73 0.16,0.2 0.38,0.36 0.63,0.46 0.26,0.1 0.57,0.15 0.93,0.15 0.67,0 1.37,-0.19 2.09,-0.58 0.73,-0.38 1.42,-0.91 2.07,-1.58 0.65,-0.68 1.24,-1.48 1.75,-2.4 0.51,-0.93 0.9,-1.92 1.16,-3l1.86 -8.44c0.02,-0.14 0.09,-0.26 0.22,-0.37 0.13,-0.12 0.32,-0.2 0.58,-0.27 0.25,-0.06 0.59,-0.11 1,-0.15 0.41,-0.04 0.9,-0.05 1.49,-0.05 0.61,0 1.1,0.01 1.48,0.05 0.39,0.04 0.69,0.09 0.91,0.15 0.21,0.07 0.36,0.15 0.42,0.27 0.07,0.11 0.09,0.23 0.05,0.37l-4.38 19.53z"/>
  <path id="_11" fill="#373435" fill-rule="nonzero" d="M331.08 38.28c-0.07,0.31 -0.33,0.53 -0.78,0.66 -0.46,0.14 -1.19,0.2 -2.19,0.2 -0.5,0 -0.91,-0.01 -1.23,-0.04 -0.33,-0.03 -0.58,-0.08 -0.78,-0.14 -0.19,-0.07 -0.32,-0.16 -0.37,-0.27 -0.06,-0.11 -0.07,-0.25 -0.04,-0.41l0.63 -3.12c-0.24,0.47 -0.64,0.96 -1.17,1.47 -0.54,0.52 -1.17,0.99 -1.91,1.42 -0.73,0.43 -1.54,0.78 -2.42,1.05 -0.89,0.27 -1.81,0.4 -2.76,0.4 -0.92,0 -1.74,-0.1 -2.44,-0.31 -0.69,-0.22 -1.29,-0.5 -1.79,-0.87 -0.5,-0.36 -0.91,-0.79 -1.23,-1.29 -0.34,-0.49 -0.6,-1.02 -0.79,-1.57 -0.2,-0.55 -0.34,-1.12 -0.42,-1.71 -0.08,-0.59 -0.12,-1.16 -0.12,-1.73 0,-0.94 0.1,-1.96 0.29,-3.04 0.2,-1.08 0.5,-2.16 0.92,-3.23 0.42,-1.07 0.94,-2.1 1.58,-3.09 0.64,-0.99 1.4,-1.86 2.3,-2.61 0.89,-0.76 1.91,-1.37 3.06,-1.81 1.15,-0.46 2.45,-0.68 3.89,-0.68 0.63,0 1.24,0.06 1.82,0.18 0.59,0.12 1.11,0.29 1.6,0.5 0.48,0.22 0.92,0.47 1.31,0.76 0.39,0.29 0.73,0.59 1.01,0.91l2.29 -10.26c0.03,-0.15 0.11,-0.28 0.22,-0.4 0.11,-0.11 0.3,-0.21 0.55,-0.29 0.26,-0.08 0.59,-0.14 1,-0.18 0.4,-0.05 0.9,-0.07 1.51,-0.07 0.61,0 1.09,0.02 1.48,0.07 0.37,0.04 0.66,0.1 0.87,0.18 0.21,0.08 0.36,0.18 0.41,0.29 0.07,0.12 0.09,0.25 0.05,0.4l-6.35 28.63zm-3.1 -13.63c-0.57,-0.8 -1.2,-1.39 -1.9,-1.8 -0.69,-0.4 -1.49,-0.6 -2.4,-0.6 -0.68,0 -1.3,0.14 -1.87,0.43 -0.57,0.28 -1.07,0.66 -1.52,1.13 -0.45,0.47 -0.85,1.02 -1.19,1.65 -0.33,0.63 -0.61,1.3 -0.83,1.99 -0.22,0.7 -0.4,1.39 -0.51,2.09 -0.11,0.69 -0.17,1.36 -0.17,1.98 0,1.11 0.21,1.93 0.62,2.49 0.42,0.56 1.07,0.84 1.96,0.84 0.73,0 1.47,-0.19 2.22,-0.58 0.75,-0.38 1.45,-0.9 2.11,-1.54 0.66,-0.65 1.23,-1.42 1.73,-2.29 0.5,-0.88 0.87,-1.82 1.09,-2.83l0.66 -2.96z"/>
 </g>
</svg>
