<?xml version="1.0" encoding="UTF-8"?>
<!DOCTYPE svg PUBLIC "-//W3C//DTD SVG 1.1//EN" "http://www.w3.org/Graphics/SVG/1.1/DTD/svg11.dtd">
<!-- Creator: CorelDRAW 2021.5 -->
<svg xmlns="http://www.w3.org/2000/svg" xml:space="preserve" width="164.73mm" height="15.9705mm" version="1.1" shape-rendering="geometricPrecision" text-rendering="geometricPrecision" image-rendering="optimizeQuality" fill-rule="evenodd" clip-rule="evenodd"
viewBox="0 0 14758.88 1430.87"
 xmlns:xlink="http://www.w3.org/1999/xlink"
 xmlns:xodm="http://www.corel.com/coreldraw/odm/2003">
 <g id="Layer_x0020_1">
  <metadata id="CorelCorpID_0Corel-Layer"/>
  <g id="_2479986857648">
   <path fill="black" fill-rule="nonzero" d="M2820.57 53.5l580.91 0c259.88,0 426.12,194.89 426.12,431.88 0,242.68 -166.24,433.74 -426.12,433.74l-412.75 0 0 472 -168.16 0 0 -1337.62zm571.35 712.76c177.72,0 273.26,-128 273.26,-284.7 0,-154.78 -95.54,-275.18 -273.26,-275.18l-403.19 0 0 559.88 403.19 0z"/>
   <path fill="black" fill-rule="nonzero" d="M3991.81 112.74c0,-64.97 49.68,-112.74 114.65,-112.74 63.05,0 114.65,47.76 114.65,112.74 0,63.06 -51.61,110.81 -114.65,110.81 -64.97,0 -114.65,-47.75 -114.65,-110.81zm30.57 265.61l162.43 0 0 1012.77 -162.43 0 0 -1012.77z"/>
   <polygon fill="black" fill-rule="nonzero" points="4362.47,378.35 4544,378.35 4842.1,798.74 5140.19,378.35 5321.74,378.35 4972.03,884.75 5321.74,1391.12 5140.19,1391.12 4842.1,968.83 4544,1391.12 4362.47,1391.12 4714.07,884.75 "/>
   <polygon fill="black" fill-rule="nonzero" points="5485.95,53.5 6424.19,53.5 6424.19,208.28 5654.11,208.28 5654.11,645.87 6347.75,645.87 6347.75,796.82 5654.11,796.82 5654.11,1234.43 6424.19,1234.43 6424.19,1391.12 5485.95,1391.12 "/>
   <path fill="black" fill-rule="nonzero" d="M6567.39 884.75c0,-292.38 227.39,-523.59 508.3,-523.59 162.43,0 298.1,82.17 374.55,202.55l0 -510.21 162.42 0 0 1337.62 -162.42 0 0 -185.35c-76.45,118.47 -210.22,202.54 -374.55,202.54 -280.9,0 -508.3,-238.85 -508.3,-523.55zm892.39 0c0,-204.48 -164.33,-374.54 -370.71,-374.54 -204.46,0 -366.89,166.22 -366.89,374.54 0,204.45 158.6,374.51 366.89,374.51 204.46,0 370.71,-170.06 370.71,-374.51z"/>
   <path fill="black" fill-rule="nonzero" d="M7815.06 112.74c0,-64.97 49.69,-112.74 114.66,-112.74 63.06,0 114.64,47.76 114.64,112.74 0,63.06 -51.59,110.81 -114.64,110.81 -64.97,0 -114.66,-47.75 -114.66,-110.81zm30.57 265.61l162.44 0 0 1012.77 -162.44 0 0 -1012.77z"/>
   <path fill="black" fill-rule="nonzero" d="M8395.92 1075.82l0 -556.08 -210.19 0 0 -141.4 210.19 0 0 -263.7 160.53 -49.7 0 313.41 328.66 -0.01 0 141.4 -328.66 0 0 554.16c0,160.53 107,223.58 330.58,154.78l0 156.7c-301.91,78.36 -491.1,-28.66 -491.1,-309.57z"/>
  </g>
  <g id="_2479986865472">
   <path fill="#F5574A" fill-rule="nonzero" d="M2340.7 378.35l-505.43 0c-176.16,0 -348.72,71.51 -473.43,196.18l-47.29 47.3 118.85 118.82 47.27 -47.29c93.41,-93.39 222.66,-146.96 354.6,-146.96l337.39 0 0 676.65 -337.39 0c-131.94,0 -261.19,-53.57 -354.6,-146.97l-501.53 -501.56c-124.7,-124.67 -297.25,-196.18 -473.42,-196.18l-505.72 0 0 1012.75 505.72 0c176.19,0 348.75,-71.51 473.42,-196.2l47.28 -47.28 -118.82 -118.81 -47.28 47.28c-93.41,93.39 -222.65,146.96 -354.6,146.96l-337.68 0.01 0 -676.65 337.68 0c131.95,0 261.18,53.56 354.59,146.95l501.55 501.55c124.67,124.68 297.22,196.19 473.41,196.19l505.43 0 0 -1012.75 0 0z"/>
  </g>
  <path fill="black" fill-rule="nonzero" d="M10126.33 1421.07c290.03,0 521.26,-176.37 625.12,-423.28l-166.56 -45.07c-80.35,182.24 -243,303.74 -458.55,303.74 -301.78,0 -519.31,-241.04 -519.31,-534.98 0,-299.82 221.44,-538.89 519.31,-536.94 215.55,0 380.17,127.38 460.51,307.67l164.61 -47.04c-105.82,-250.83 -339.02,-425.23 -625.12,-425.23 -386.04,0 -691.75,313.54 -691.75,701.54 0,384.09 303.74,699.59 691.75,699.59z"/>
  <polygon id="_1" fill="black" fill-rule="nonzero" points="10943.49,1413.23 11110.07,1413.23 11110.07,41.5 10943.49,41.5 "/>
  <path id="_2" fill="black" fill-rule="nonzero" d="M11835.13 1428.91c295.9,0 533.01,-243 533.01,-536.94 0,-290.03 -235.15,-534.98 -533.01,-534.98 -295.9,0 -531.06,241.04 -531.06,534.98 0,293.94 235.16,536.94 531.06,536.94zm0 -154.81c-207.72,0 -374.29,-168.53 -374.29,-382.13 0,-209.68 164.61,-382.13 374.29,-382.13 209.68,0 376.24,172.45 376.24,382.13 0,209.68 -164.6,382.13 -376.24,382.13z"/>
  <path id="_3" fill="black" fill-rule="nonzero" d="M12971.71 1430.87c172.44,0 293.94,-92.09 358.61,-197.91l0 180.28 166.56 0 0 -1038.6 -166.56 0 0 531.06c0,215.55 -139.13,368.41 -329.21,368.41 -158.73,0 -301.79,-113.66 -301.79,-321.38l0 -578.09 -166.56 0 0 627.08c0,270.43 209.68,429.16 438.96,429.16z"/>
  <path id="_4" fill="black" fill-rule="nonzero" d="M14208.23 1430.87c168.53,0 305.7,-86.22 384.08,-207.72l0 190.08 166.57 0 0 -1371.73 -166.57 0 0 523.21c-78.38,-123.45 -217.52,-207.72 -384.08,-207.72 -288.06,0 -521.26,237.11 -521.26,536.94 0,291.98 233.2,536.93 521.26,536.93zm13.72 -152.85c-213.6,0 -376.25,-174.4 -376.25,-384.08 0,-213.6 166.57,-384.09 376.25,-384.09 211.64,0 380.17,174.4 380.17,384.09 0,209.68 -170.49,384.08 -380.17,384.08z"/>
 </g>
</svg>
